<?xml version="1.0" encoding="UTF-8" standalone="no"?>
<!-- Created with Inkscape (http://www.inkscape.org/) -->

<svg
   xmlns:dc="http://purl.org/dc/elements/1.1/"
   xmlns:cc="http://creativecommons.org/ns#"
   xmlns:rdf="http://www.w3.org/1999/02/22-rdf-syntax-ns#"
   xmlns:svg="http://www.w3.org/2000/svg"
   xmlns="http://www.w3.org/2000/svg"
   xmlns:sodipodi="http://sodipodi.sourceforge.net/DTD/sodipodi-0.dtd"
   xmlns:inkscape="http://www.inkscape.org/namespaces/inkscape"
   width="30"
   height="30"
   id="svg4684"
   version="1.1"
   inkscape:version="0.91 r13725"
   viewBox="0 0 64 64"
   sodipodi:docname="earth.svg">
  <defs
     id="defs4686">
    <filter
       inkscape:collect="always"
       style="color-interpolation-filters:sRGB"
       id="filter5768-6"
       x="-0.023721419"
       width="1.0474428"
       y="-0.074629299"
       height="1.1492586">
      <feGaussianBlur
         inkscape:collect="always"
         stdDeviation="0.47192293"
         id="feGaussianBlur5770-7" />
    </filter>
  </defs>
  <sodipodi:namedview
     id="base"
     pagecolor="#ffffff"
     bordercolor="#666666"
     borderopacity="1.0"
     inkscape:pageopacity="0.0"
     inkscape:pageshadow="2"
     inkscape:zoom="5.6568543"
     inkscape:cx="12.875505"
     inkscape:cy="31.622488"
     inkscape:current-layer="layer1"
     showgrid="true"
     inkscape:document-units="px"
     inkscape:grid-bbox="true"
     inkscape:window-width="1366"
     inkscape:window-height="745"
     inkscape:window-x="-8"
     inkscape:window-y="-8"
     inkscape:window-maximized="1" />
  <metadata
     id="metadata4689">
    <rdf:RDF>
      <cc:Work
         rdf:about="">
        <dc:format>image/svg+xml</dc:format>
        <dc:type
           rdf:resource="http://purl.org/dc/dcmitype/StillImage" />
        <dc:title></dc:title>
      </cc:Work>
    </rdf:RDF>
  </metadata>
  <g
     id="layer1"
     inkscape:label="Layer 1"
     inkscape:groupmode="layer">
    <ellipse
       style="opacity:1;fill:#5f5fd3;fill-opacity:1;stroke:#d3956a;stroke-width:0;stroke-miterlimit:4;stroke-dasharray:none;stroke-opacity:0.6449704"
       id="path5232"
       cx="31.90909"
       cy="32.363636"
       rx="31.181818"
       ry="31.636364" />
    <path
       style="opacity:1;fill:#8787de;fill-opacity:1;stroke:#d3956a;stroke-width:0;stroke-miterlimit:4;stroke-dasharray:none;stroke-opacity:0.6449704"
       id="path5240"
       ry="31.073977"
       rx="30.759022"
       cy="31.870094"
       cx="31.661652" />
    <path
       style="opacity:1;fill:#b3b3b3;fill-opacity:1;stroke:#79956a;stroke-width:0.5;stroke-miterlimit:4;stroke-dasharray:none;stroke-opacity:0.64497042"
       id="path5258"
       ry="23"
       rx="21.545454"
       cy="31.545454"
       cx="28.272728" />
    <path
       inkscape:connector-curvature="0"
       style="opacity:1;fill:#d38d5f;fill-opacity:0.33727812;stroke:#d3956a;stroke-width:0;stroke-miterlimit:4;stroke-dasharray:none;stroke-opacity:0.6449704;filter:url(#filter5768-6)"
       d="m -5.3104395,41.422425 c -9.1996615,48.849132 -4.599831,24.424566 0,0 z"
       id="path5232-3-6-1"
       sodipodi:nodetypes="cc"
       transform="matrix(0.66664245,-0.03881087,0.02565551,0.69092689,9.7969046,-15.988309)" />
    <ellipse
       style="opacity:1;fill:#5f8dd3;fill-opacity:1;stroke:#d3956a;stroke-width:0;stroke-miterlimit:4;stroke-dasharray:none;stroke-opacity:0.6449704"
       id="path5240-2"
       cx="31.386366"
       cy="32.534088"
       rx="30.759022"
       ry="31.073977" />
    <path
       inkscape:connector-curvature="0"
       style="opacity:1;fill:#dbe3db;fill-opacity:1;stroke:#d3956a;stroke-width:0;stroke-miterlimit:4;stroke-dasharray:none;stroke-opacity:0.6449704"
       d="m 53.358414,28.558672 c -1.244963,0.01543 -3.07433,1.060619 -3.772255,2.949436 l -1.933956,0.383779 c -5.317006,1.056474 -3.647483,3.187103 -3.647483,3.187103 -0.641965,6.50527 3.463963,7.230836 6.49643,5.970952 4.81149,0.821817 2.044172,6.409277 2.044172,6.409277 0.435845,1.199618 -0.19783,4.612703 0.05981,6.374467 0.06214,0.42494 0.17614,0.75381 0.369509,0.932375 7.672578,-8.106311 9.606745,-15.821483 9.322813,-23.453629 -0.0052,-0.182528 -0.22881,-1.840977 -0.22881,-1.840977 -1.196084,-1.023903 -1.481808,-0.447184 -1.481808,-0.447184 l -6.24065,-0.130525 C 54.12479,28.663143 53.773396,28.553527 53.358414,28.558672 Z"
       id="path5240-2-8"
       sodipodi:nodetypes="scccccscccccs" />
    <path
       inkscape:connector-curvature="0"
       style="opacity:1;fill:#dbdee3;fill-opacity:1;stroke:#d3956a;stroke-width:0;stroke-miterlimit:4;stroke-dasharray:none;stroke-opacity:0.6449704"
       d="M 15.984033,6.8217676 C 14.460986,6.9519539 14.078189,6.8155873 13.573045,6.7611843 9.5973477,9.7737367 5.9132977,13.860365 3.7572868,18.344593 c 0.1460567,0.165429 0.094522,0.110899 0.1460567,0.165429 -1.9240146,5.059816 0.5869071,2.595424 0.4961926,2.930433 2.8296847,1.606123 1.308,4.47684 5.8902879,6.138549 l 1.466568,2.510956 c 1.067577,1.616508 2.869932,3.864377 4.199631,5.104627 -0.688557,0.677115 -0.496193,1.031953 -0.496194,1.031953 -1.463904,3.974269 1.240478,3.925322 2.873116,6.910545 L 18.2169,48.042804 c 0,0 3.202943,8.342976 2.372921,10.752801 2.812625,3.811581 3.62905,-1.639738 7.280827,-8.649506 l 1.634635,-0.760179 1.006391,-1.770471 3.403321,-3.101769 -0.170066,-3.627593 c 0.343702,-0.259262 -0.561823,-0.794308 -0.194075,-1.045739 0.08107,-0.212444 -2.066803,-1.096944 -2.066803,-1.096944 -0.320608,-3.138633 -2.743065,-3.176605 -2.743065,-3.176605 l -3.32329,-0.419478 c -0.326554,-0.217091 -4.199641,-1.795869 -5.756235,-1.920143 -0.222367,-0.0178 -0.397512,-0.0065 -0.508198,0.04333 -1.09544,0.493323 -1.868459,0.924478 -2.418939,1.29585 -0.754883,-0.603184 -1.695843,-1.710398 -1.228477,-3.292799 -1.495403,-1.537602 -1.344569,1.107594 -1.49458,-1.538084 1.763647,-1.620375 0.982381,-2.599579 0.982381,-2.599578 -2.921264,0.05102 -2.022352,-1.493151 0.700272,-3.239625 l 3.901515,1.221013 c -0.05367,-0.503601 5.02258,6.359149 2.855108,2.359315 -2.167476,-3.999835 1.154955,-0.86531 2.096815,-3.117525 l 0.67026,-3.98405 c 1.330603,-2.278476 2.133774,-1.941396 2.052797,-2.78273 1.883993,0.297874 1.169069,-2.44602 3.285276,-2.272662 l -0.132052,-1.242678 c 0.164522,-0.921227 3.501752,-0.845672 0.888345,-1.547932 -0.66439,-0.177315 -7.739073,-6.2818901 -6.82465,1.415983 -12.536432,1.607321 5.939959,-5.6042029 -8.503301,-7.1232384 z"
       id="path5240-2-4"
       sodipodi:nodetypes="cccccccccccccccccccccccccccccscccccccc" />
    <path
       inkscape:connector-curvature="0"
       style="opacity:1;fill:#dbdee3;fill-opacity:1;stroke:#d3956a;stroke-width:0;stroke-miterlimit:4;stroke-dasharray:none;stroke-opacity:0.6449704"
       d="m 48.67832,12.281817 c -1.497323,-0.275716 -1.945655,1.587818 -4.268156,3.899594 -0.758078,1.544746 1.91167,2.488325 1.91167,2.488325 0,0 1.232618,1.780072 -3.522286,3.288499 -3.924784,11.215912 -0.0057,8.62831 2.963283,5.29473 1.073951,-1.205845 6.557235,-1.751946 6.557235,-1.751946 1.449802,-0.733608 0.648271,-2.797242 4.753088,-1.96253 2.001604,1.138005 3.555318,1.989767 4.815945,2.658698 -1.243924,-5.354163 -3.499714,-10.22807 -7.002314,-14.458318 -1.620694,0.02222 -4.27934,0.604374 -6.208465,0.542948 z"
       id="path5240-2-3"
       sodipodi:nodetypes="ccccsccccc" />
    <path
       style="opacity:1;fill:#00aa00;fill-opacity:1;stroke:#d3956a;stroke-width:0;stroke-miterlimit:4;stroke-dasharray:none;stroke-opacity:0.6449704"
       d="m 11.702226,15.957312 c -0.156648,0.700195 -6.020409,6.564122 -5.8907512,6.698576 z m 8.349502,17.888726 c -0.07647,0.0058 -0.139523,0.0214 -0.189276,0.0447 -2.831189,0.374041 -2.954593,1.390315 -3.008074,1.761585 -0.0665,-0.05797 0.05305,0.302051 -0.0036,0.216999 0.183889,-0.945855 -0.940626,0.106518 -0.940683,0.106651 -1.349704,3.786829 1.687208,4.472525 3.117248,7.341153 l -0.152173,4.688655 c 0,0 2.780599,8.00397 2.01374,10.300649 2.477104,3.669157 3.261244,-1.535338 6.598686,-8.205025 l 1.469754,-0.71119 0.917695,-1.68496 3.076059,-2.934608 -0.115829,-3.470741 c 0.310054,-0.244836 -0.493599,-0.763822 -0.162115,-1.000956 0.07467,-0.2024 -1.836516,-1.06799 -1.836516,-1.06799 -0.254937,-3.003686 -2.421949,-3.060851 -2.421949,-3.060851 l -2.968048,-0.431071 c -0.289886,-0.210452 -3.738811,-1.753891 -5.129853,-1.886496 -0.09935,-0.0095 -0.188584,-0.01229 -0.265054,-0.0065 z m -3.200962,2.023281 c 0.03129,-0.03825 0.04996,-0.07082 0.08755,-0.111682 l -0.512211,-0.531931 c 0.02258,0.04118 0.0025,1.358202 0.02691,1.394884 z"
       id="path5240-2-4-5"
       inkscape:connector-curvature="0"
       sodipodi:nodetypes="cccccccccccccccccccccccccccc" />
    <path
       style="opacity:1;fill:#00aa00;fill-opacity:1;stroke:#d3956a;stroke-width:0;stroke-miterlimit:4;stroke-dasharray:none;stroke-opacity:0.6449704"
       d="M 16.110789,7.2175243 C 14.653092,7.3382812 13.820186,6.9329331 13.336717,6.8824705 9.5314962,9.6766781 6.0729011,13.568387 4.1860039,17.948715 c 0.048084,0.05086 0.090873,0.10341 0.1401986,0.153991 -1.8419286,4.69373 -0.7008642,3.406744 0.2248077,2.873743 2.8167289,2.360795 1.6845474,4.808635 5.8070638,6.3333 l 1.307889,1.843661 c 1.751816,3.106545 2.892337,3.967165 3.95073,5.148367 -0.824646,-1.066247 4.06486,5.16647 1.026684,0.53899 -0.05448,0.02724 -2.050751,-1.933736 -1.461542,-3.398848 -1.431239,-1.426234 -1.432005,1.608515 -1.430031,-2.175778 1.687972,-1.503013 0.690268,-1.911324 0.690268,-1.911323 -2.795918,0.04732 -1.436586,-2.105238 1.169217,-3.725218 1.372735,0.50066 2.789459,0.7453 3.955872,0.867124 -0.05137,-0.467125 4.540382,6.296367 2.465912,2.586237 -2.074474,-3.710131 1.150397,-0.669743 2.051844,-2.758832 l 0.906342,-4.226121 c 1.273509,-2.113448 1.776992,-2.066386 1.69949,-2.846784 1.803155,0.2763 1.118793,-2.267764 3.144197,-2.106962 l -0.125245,-1.154029 c 0.157463,-0.854505 3.349943,-0.783441 0.848672,-1.434837 -0.465366,-0.103816 -6.401539,-5.6734346 -5.912687,1.667009 -12.833483,1.702856 4.500962,-5.8510976 -8.534897,-7.0048807 z"
       id="path5240-2-4-0"
       inkscape:connector-curvature="0"
       sodipodi:nodetypes="ccccccccccccccscccccccc" />
    <path
       inkscape:connector-curvature="0"
       style="opacity:1;fill:#00aa00;fill-opacity:1;stroke:#d3956a;stroke-width:0;stroke-miterlimit:4;stroke-dasharray:none;stroke-opacity:0.6449704"
       d="m 48.86534,12.566603 c -1.389038,-0.25508 -1.492447,1.656479 -3.646988,3.795231 -0.703254,1.42913 2.08592,2.239587 2.08592,2.239587 0,0 0.268477,2.334344 -4.142558,3.729873 -3.640948,10.376463 -0.6928,7.732529 2.061482,4.648449 0.996284,-1.115594 6.583024,-1.745822 6.583024,-1.745822 1.229753,-0.717102 1.3065,-3.019514 5.47185,-2.128146 1.85685,1.052832 3.298202,1.840844 4.467662,2.459709 -1.153965,-4.953433 -3.246619,-9.462555 -6.495915,-13.376192 -1.503487,0.02056 -4.594864,0.43414 -6.384477,0.377311 z"
       id="path5240-2-3-8"
       sodipodi:nodetypes="ccccsccccc" />
    <path
       inkscape:connector-curvature="0"
       style="opacity:1;fill:#00aa00;fill-opacity:1;stroke:#d3956a;stroke-width:0;stroke-miterlimit:4;stroke-dasharray:none;stroke-opacity:0.6449704"
       d="m 53.922506,29.146383 c -1.05991,-0.187707 -2.876391,0.03274 -3.893283,2.571608 l -1.61625,0.554646 c -4.959031,1.010686 -4.026911,2.111474 -4.026911,2.111474 -0.680218,6.79365 3.583071,7.951182 6.496549,6.149671 4.48755,0.7862 2.281546,6.694 2.281546,6.694 0.50455,1.424436 -0.706736,6.246944 0.221326,7.125998 7.031012,-7.629984 9.139042,-15.271615 8.874226,-22.572985 -0.0048,-0.174617 -0.16353,-1.899732 -0.16353,-1.899732 -1.115556,-0.979528 -1.43192,-0.28926 -1.43192,-0.28926 l -5.82049,-0.124868 c -0.206486,-0.220609 -0.540122,-0.253053 -0.921263,-0.320552 z"
       id="path5240-2-8-7"
       sodipodi:nodetypes="sccccccccccs" />
    <ellipse
       style="opacity:1;fill:#e5d5ff;fill-opacity:0.40828403;stroke:#d3956a;stroke-width:0;stroke-linejoin:round;stroke-miterlimit:4;stroke-dasharray:none;stroke-opacity:0.62745098"
       id="path5979"
       cx="29.432957"
       cy="30.176603"
       rx="27.062906"
       ry="27.320036" />
  </g>
</svg>
