<?xml version="1.0" encoding="UTF-8" standalone="no"?>
<!-- Created with Inkscape (http://www.inkscape.org/) -->

<svg
   xmlns:dc="http://purl.org/dc/elements/1.1/"
   xmlns:cc="http://creativecommons.org/ns#"
   xmlns:rdf="http://www.w3.org/1999/02/22-rdf-syntax-ns#"
   xmlns:svg="http://www.w3.org/2000/svg"
   xmlns="http://www.w3.org/2000/svg"
   xmlns:sodipodi="http://sodipodi.sourceforge.net/DTD/sodipodi-0.dtd"
   xmlns:inkscape="http://www.inkscape.org/namespaces/inkscape"
   width="30"
   height="30"
   id="svg4684"
   version="1.1"
   inkscape:version="0.91 r13725"
   viewBox="0 0 64 64"
   sodipodi:docname="mars.svg">
  <defs
     id="defs4686">
    <filter
       inkscape:collect="always"
       style="color-interpolation-filters:sRGB"
       id="filter5768-6"
       x="-0.023721419"
       width="1.0474428"
       y="-0.074629299"
       height="1.1492586">
      <feGaussianBlur
         inkscape:collect="always"
         stdDeviation="0.47192293"
         id="feGaussianBlur5770-7" />
    </filter>
  </defs>
  <sodipodi:namedview
     id="base"
     pagecolor="#ffffff"
     bordercolor="#666666"
     borderopacity="1.0"
     inkscape:pageopacity="0.0"
     inkscape:pageshadow="2"
     inkscape:zoom="5.6568543"
     inkscape:cx="21.723222"
     inkscape:cy="45.894756"
     inkscape:current-layer="layer1"
     showgrid="true"
     inkscape:document-units="px"
     inkscape:grid-bbox="true"
     inkscape:window-width="1056"
     inkscape:window-height="736"
     inkscape:window-x="301"
     inkscape:window-y="0"
     inkscape:window-maximized="0" />
  <metadata
     id="metadata4689">
    <rdf:RDF>
      <cc:Work
         rdf:about="">
        <dc:format>image/svg+xml</dc:format>
        <dc:type
           rdf:resource="http://purl.org/dc/dcmitype/StillImage" />
        <dc:title></dc:title>
      </cc:Work>
    </rdf:RDF>
  </metadata>
  <g
     id="layer1"
     inkscape:label="Layer 1"
     inkscape:groupmode="layer">
    <ellipse
       style="opacity:1;fill:#d24700;fill-opacity:0.98816568;stroke:#d3956a;stroke-width:0;stroke-miterlimit:4;stroke-dasharray:none;stroke-opacity:0.6449704"
       id="path5232"
       cx="31.90909"
       cy="32.363636"
       rx="31.181818"
       ry="31.636364" />
    <path
       style="opacity:1;fill:#8787de;fill-opacity:1;stroke:#d3956a;stroke-width:0;stroke-miterlimit:4;stroke-dasharray:none;stroke-opacity:0.6449704"
       id="path5240"
       ry="31.073977"
       rx="30.759022"
       cy="31.870094"
       cx="31.661652" />
    <path
       style="opacity:1;fill:#b3b3b3;fill-opacity:1;stroke:#79956a;stroke-width:0.5;stroke-miterlimit:4;stroke-dasharray:none;stroke-opacity:0.64497042"
       id="path5258"
       ry="23"
       rx="21.545454"
       cy="31.545454"
       cx="28.272728" />
    <path
       inkscape:connector-curvature="0"
       style="opacity:1;fill:#d38d5f;fill-opacity:0.33727812;stroke:#d3956a;stroke-width:0;stroke-miterlimit:4;stroke-dasharray:none;stroke-opacity:0.6449704;filter:url(#filter5768-6)"
       d="m -5.3104395,41.422425 c -9.1996615,48.849132 -4.599831,24.424566 0,0 z"
       id="path5232-3-6-1"
       sodipodi:nodetypes="cc"
       transform="matrix(0.66664245,-0.03881087,0.02565551,0.69092689,9.7969046,-15.988309)" />
    <ellipse
       style="opacity:1;fill:#e46b00;fill-opacity:1;stroke:#d3956a;stroke-width:0;stroke-miterlimit:4;stroke-dasharray:none;stroke-opacity:0.6449704"
       id="path5240-2"
       cx="31.386366"
       cy="32.034088"
       rx="30.759022"
       ry="31.073977" />
    <path
       inkscape:connector-curvature="0"
       style="opacity:1;fill:#b95500;fill-opacity:0.81568629;stroke:#d3956a;stroke-width:0;stroke-miterlimit:4;stroke-dasharray:none;stroke-opacity:0.6449704"
       d="m 53.358414,28.558672 c -1.244963,0.01543 -1.82433,1.310619 -2.522255,3.199436 l -0.933956,0.883779 c -5.317006,1.056474 -4.897483,-0.0629 -4.897483,-0.0629 -0.641965,6.50527 -10.161037,14.480836 -7.12857,13.220952 4.81149,0.821817 -1.955828,13.534277 -1.955828,13.534277 0.435845,1.199618 16.42717,-7.262297 16.68481,-5.500533 0.06214,0.42494 0.529693,1.28414 0.723062,1.462705 7.672578,-8.106311 9.164804,-15.202765 9.764755,-21.509086 l -0.140417,-4.31585 c -1.196084,-1.023903 -2.365691,-0.447184 -2.365691,-0.447184 l -6.24065,-0.130525 c -0.221396,-0.230603 -0.57279,-0.340219 -0.987777,-0.335074 z"
       id="path5240-2-8"
       sodipodi:nodetypes="scccccscccccs" />
    <path
       inkscape:connector-curvature="0"
       style="opacity:1;fill:#b85500;fill-opacity:0.81656805;stroke:#d3956a;stroke-width:0;stroke-miterlimit:4;stroke-dasharray:none;stroke-opacity:0.6449704"
       d="M 17.734033,5.3217676 C 16.210986,5.4519539 13.453189,7.1905873 12.948045,7.1361843 8.9723477,10.148737 5.9132977,13.860365 3.7572868,18.344593 c 0.1460567,0.165429 0.094522,0.110899 0.1460567,0.165429 -1.9240146,5.059816 0.5869071,2.595424 0.4961926,2.930433 L 6.414824,26.079004 6.006392,28.33996 c 1.067577,1.616508 -5.88006792,-0.135623 -4.5503689,1.104627 -0.68855702,0.677115 2.378807,5.781953 2.378806,5.781953 -1.463904,3.974269 4.1154779,3.300322 3.7481159,13.285545 l 1.2589551,5.155719 c 2.4630889,2.77428 3.8697739,4.451576 9.1854209,7.065301 10.093327,-7.087006 5.625,6 15.718327,-1.087006 l 3.509635,-7.760179 -1.493609,-3.770471 1.403321,-3.726769 c 0.306629,-3.961006 2.572903,-4.675366 2.579934,-6.002593 0.343702,-0.259262 -1.061823,-2.419308 -0.694075,-2.670739 0.08107,-0.212444 -2.941803,-8.221944 -2.941803,-8.221944 -6.320608,1.611367 -9.368065,1.698395 -9.368065,1.698395 l -4.57329,1.955522 c -0.326554,-0.217091 -0.949641,2.204131 -2.506235,2.079857 0,0 -0.397512,-0.0065 -0.508198,0.04333 -1.09544,0.493323 -1.868459,0.924478 -2.418939,1.29585 -0.754883,-0.603184 0.304157,-1.710398 0.771523,-3.292799 -1.495403,-1.537602 1.405431,0.732594 1.25542,-1.913084 1.763647,-1.620375 2.357381,-1.349579 2.357381,-1.349578 -2.921264,0.05102 -5.522352,-0.118151 -2.799728,-1.864625 l 2.151515,-0.27899 c -1.276515,1.02899 0.648213,2.143615 3.230108,3.109315 4.261055,1.593752 9.529955,-4.86531 10.471815,-7.117525 l 0.54526,-3.35905 c 1.330603,-2.278476 -7.241226,-3.941396 -7.322203,-4.78273 1.883993,0.297874 2.294069,4.30398 4.410276,4.477338 l 3.242948,-4.742678 C 35.088793,12.126531 46.0591,8.0720876 38.561984,7.904023 36.798639,12.826955 29.322911,-0.50286706 30.237334,7.195006 17.700902,8.802327 32.177293,6.8408031 17.734033,5.3217676 Z"
       id="path5240-2-4"
       sodipodi:nodetypes="cccccccccccccccccccccccccccccscccccccc" />
    <path
       inkscape:connector-curvature="0"
       style="opacity:1;fill:#b85500;fill-opacity:0.81568627;stroke:#d3956a;stroke-width:0;stroke-miterlimit:4;stroke-dasharray:none;stroke-opacity:0.6449704"
       d="m 46.42832,5.5318171 c -1.497323,-0.275716 0,0 -9.893156,9.0245939 -0.758078,1.544746 -1.46333,7.113325 -1.46333,7.113325 0,0 -3.142382,4.030072 1.227714,3.663499 5.200216,1.590912 -0.3807,8.87831 5.463283,9.41973 1.607869,0.148962 2.807235,-3.501946 2.807235,-3.501946 1.449802,-0.733608 9.273271,-4.297242 13.378088,-3.46253 2.001604,1.138005 3.305318,-2.260233 4.565945,-1.591302 -1.243924,-5.354163 -3.499714,-10.22807 -7.002314,-14.458318 -1.620694,0.02222 -7.15434,-6.1456259 -9.083465,-6.2070519 z"
       id="path5240-2-3"
       sodipodi:nodetypes="ccccsccccc" />
    <path
       inkscape:connector-curvature="0"
       style="opacity:1;fill:#ff9b3c;fill-opacity:0.88757396;stroke:#d3956a;stroke-width:0;stroke-miterlimit:4;stroke-dasharray:none;stroke-opacity:0.6449704"
       d="m 46.510352,7.3187601 c -1.497323,-0.275716 -6.195655,5.7128179 -8.518156,8.0245939 -0.758078,1.544746 -0.71333,5.613325 -0.71333,5.613325 -0.306865,0 -5.036926,2.780072 0.977714,4.288499 2.700216,2.340912 0.129837,12.735129 5.588283,4.79473 0.914739,-1.330671 8.557235,-3.751946 8.557235,-3.751946 0,0 2.273271,-0.29724 6.378088,0.53747 1.160626,-0.964441 2.21693,-2.370068 3.477557,-1.701137 -1.243924,-5.354163 -2.911326,-8.618235 -6.413926,-12.848483 -1.620694,0.02222 -7.40434,-4.8956259 -9.333465,-4.9570519 z"
       id="path5240-2-3-0"
       sodipodi:nodetypes="ccccsccccc" />
    <path
       inkscape:connector-curvature="0"
       style="opacity:1;fill:#ffb367;fill-opacity:0.60946745;stroke:#d3956a;stroke-width:0;stroke-miterlimit:4;stroke-dasharray:none;stroke-opacity:0.6449704"
       d="m 53.52603,29.791437 c -1.244963,0.01543 -1.01367,-0.579546 -1.711595,1.309271 l -1.232053,2.185556 -4.946658,0.452268 c -0.641965,6.50527 -4.499425,7.679059 -6.841958,11.169175 3.68649,2.696817 -1.435459,13.221015 -1.435459,13.221015 0.435845,1.199618 15.333578,-7.009695 15.591218,-5.247931 0.06214,0.42494 1.148411,1.28414 1.34178,1.462705 7.672578,-8.106311 8.369309,-14.142105 8.96926,-20.448426 l -0.317194,-3.78552 c -1.196084,-1.023903 -2.277302,-0.0052 -2.277302,-0.0052 l -5.887097,-0.572509 c -0.221396,-0.230603 -0.837955,0.254451 -1.252942,0.259596 z"
       id="path5240-2-8-5"
       sodipodi:nodetypes="scccccscccccs" />
    <path
       inkscape:connector-curvature="0"
       style="opacity:1;fill:#ff9d30;fill-opacity:0.71597637;stroke:#d3956a;stroke-width:0;stroke-miterlimit:4;stroke-dasharray:none;stroke-opacity:0.6449704"
       d="m 17.68004,6.2943312 c -1.523047,0.130186 -4.905844,1.61882 -5.410988,1.564417 -3.9756971,3.0125528 -6.2847471,6.0991808 -8.440758,10.5834078 0.1460567,0.165429 0.5210567,-0.459571 0.5210567,-0.459571 -0.6740146,4.184816 0.2461926,2.180433 0.2461926,2.180433 l 2.6402879,5.888549 -0.408432,2.510956 C 7.8949762,30.179031 0.69733108,29.0519 2.0270301,30.29215 l 2.5038062,4.656953 c -1.463904,3.974269 4.6154777,3.050322 4.2481157,13.035545 l 0.7589553,6.280719 c 2.4630887,2.77428 2.6197737,3.451576 7.9354207,6.065301 13.218327,-7.962006 6,4.875 16.093327,-2.212006 l 2.009635,-5.885179 -0.743609,-4.645471 1.528321,-3.476769 c 0.306629,-3.961006 2.197903,-4.175366 2.204934,-5.502593 l -0.569075,-2.795739 -2.191803,-7.471944 c -6.320608,1.611367 -8.868065,1.948395 -8.868065,1.948395 l -4.32329,1.830522 c -0.326554,-0.217091 -0.449641,1.954131 -2.006235,1.829857 0,0 -0.647512,-0.1315 -0.758198,-0.08167 -1.09544,0.493323 -2.993459,1.549478 -3.543939,1.92085 -0.754883,-0.603184 0.02152,-4.167799 0.02152,-4.167799 -1.495403,-1.537602 0.155431,0.732594 0.0054,-1.913084 l 2.482381,-1.474578 c -2.921264,0.05102 -3.522352,-1.493151 -0.799728,-3.239625 l 3.776515,0.09601 c 0,0 -2.026515,2.153987 1.980108,2.984315 4.454701,0.923187 8.154955,-3.86531 9.096815,-6.117525 l 0.79526,-3.73405 c 0.521989,-0.893834 -0.97996,-1.192937 -2.3954,-1.88487 -2.192663,-1.071877 -0.752593,0.488424 -0.801803,-0.02286 1.883993,0.297874 -0.705931,1.803979 1.410276,1.977337 l 2.242948,-5.367677 C 34.159796,11.599095 44.255107,8.6696512 38.882991,8.3765872 37.119646,13.299519 30.268918,1.5946962 30.933341,8.04257 17.521909,9.649891 29.4983,6.5633672 17.68004,6.2943312 Z"
       id="path5240-2-4-03"
       sodipodi:nodetypes="cccccccccccccccccccccccccccccsccscccccc" />
    <path
       inkscape:connector-curvature="0"
       style="opacity:1;fill:#ff9b3c;fill-opacity:0.26035503;stroke:#d3956a;stroke-width:0;stroke-miterlimit:4;stroke-dasharray:none;stroke-opacity:0.6449704"
       d="m 22.252557,32.221789 c -5.223314,1.280718 -4.241313,4.699746 -5.800679,6.539288 -0.516234,1.258822 -1.860762,1.074329 -1.860762,1.074329 l -4.209198,1.869723 c -0.161212,5.032623 3.96341,22.127928 7.680499,15.657252 0.622918,-1.084371 15.827291,-4.307481 15.827291,-4.307481 0,0 -7.826951,-5.617224 -5.031661,-4.937014 6.397389,2.204487 2.634682,-3.181381 3.493141,-2.636266 8.152915,-11.613137 5.517451,-10.023048 -3.492744,-11.970301 -1.103657,0.0181 -5.292194,-1.239473 -6.605887,-1.28953 z"
       id="path5240-2-3-0-3-9"
       sodipodi:nodetypes="ccccsccccc" />
    <path
       inkscape:connector-curvature="0"
       style="opacity:1;fill:#ff9b3c;fill-opacity:0.25882354;stroke:#d3956a;stroke-width:0;stroke-miterlimit:4;stroke-dasharray:none;stroke-opacity:0.6449704"
       d="m 46.707306,9.0612519 c -1.497322,-0.275716 -4.070654,4.7128171 -6.393155,7.0245931 -0.758078,1.544746 -0.71333,4.113325 -0.71333,4.113325 -0.306865,0 -6.411926,2.655072 -0.397286,4.163499 2.700216,2.340912 2.584063,6.773509 6.463283,1.91973 l 6.932234,-1.376946 c 0,0 1.523271,-0.29724 5.628088,0.53747 1.160626,-0.964441 -0.28307,-5.620068 2.227557,-1.701137 -1.243924,-5.354163 -1.411326,-6.868235 -4.913926,-11.098483 -1.620694,0.02222 -6.90434,-3.5206251 -8.833465,-3.5820511 z"
       id="path5240-2-3-0-8"
       sodipodi:nodetypes="cccccccccc" />
    <path
       inkscape:connector-curvature="0"
       style="opacity:1;fill:#ff9b3c;fill-opacity:0.25882354;stroke:#d3956a;stroke-width:0;stroke-miterlimit:4;stroke-dasharray:none;stroke-opacity:0.6449704"
       d="m 46.403208,34.786367 c 3.85221,4.826599 -3.326887,6.374673 -4.241565,8.61803 -0.05912,1.359278 -1.386622,1.64131 -1.386622,1.64131 l 1.763294,7.802716 c 2.780743,-0.186935 4.034876,-0.822558 10.871385,-3.518329 1.163376,-0.458742 0.71819,1.011999 0.71819,1.011999 0,0 -1.108815,-2.281211 1.751592,-2.588465 0.477279,-1.007252 2.150751,-6.260952 3.14314,-6.038989 3.735294,-13.688774 2.169577,-8.674701 -6.967389,-7.453526 -1.032226,0.391017 -4.399096,0.127188 -5.652025,0.525254 z"
       id="path5240-2-3-0-3-2"
       sodipodi:nodetypes="ccccsccccc" />
    <path
       inkscape:connector-curvature="0"
       style="opacity:1;fill:#a05a2c;fill-opacity:1;stroke:#d3956a;stroke-width:0;stroke-miterlimit:4;stroke-dasharray:none;stroke-opacity:0.6449704"
       d="m 52.706104,27.597823 c -1.022911,-0.06186 1.971547,0.162814 1.228889,2.114423 l 1.720039,1.216476 c 1.199039,1.42436 -3.982214,4.234111 -3.982214,4.234111 -1.112222,6.832132 -11.674667,11.800028 -9.073063,10.659415 3.87398,1.170273 -9.846825,16.52354 -9.846825,16.52354 0.249655,1.294689 8.779481,-8.798701 8.832324,-6.921326 0.01275,0.452825 1.725453,-5.934113 5.772818,-8.819841 5.787048,-8.488914 -0.0111,-3.781534 10.755515,-14.894342 -0.644576,-2.755517 -1.793624,-3.122413 -1.793624,-3.122413 -2.405418,-0.457512 -1.130632,-1.238367 -0.641683,-1.463877 l -2.075123,-1.932672 c -1.504528,-4.819834 -0.556086,2.427123 -0.897053,2.406506 z"
       id="path5240-2-8-0"
       sodipodi:nodetypes="scccccscccccs" />
    <path
       inkscape:connector-curvature="0"
       style="opacity:1;fill:#a05a2c;fill-opacity:1;stroke:#d3956a;stroke-width:0;stroke-miterlimit:4;stroke-dasharray:none;stroke-opacity:0.6449704"
       d="m 12.752262,38.954273 c 0.119037,0.614129 1.053561,-1.087813 2.651078,-1.977323 l 2.766819,-2.026734 c 0.883634,-1.624059 0.975316,0.647741 0.975316,0.647741 5.351322,-3.946933 8.823929,-2.480554 7.538819,-3.174354 -6.096798,-0.621926 9.158325,-3.652914 12.615966,-4.920716 0.939431,-1.00574 -5.846264,-0.148429 -4.433915,-1.433709 0.340666,-0.310007 -3.771075,2.877925 -7.736412,2.416836 -5.265805,2.851507 -6.054724,3.857736 -11.641871,4.81485 -1.981042,2.20395 -2.572422,2.967728 -2.572422,2.967728 0.04375,1.652861 -0.753954,1.461356 -1.003912,1.338414 l -1.126308,2.454583 c -3.404013,4.066182 1.927162,-1.31202 1.966842,-1.107316 z"
       id="path5240-2-8-0-3"
       sodipodi:nodetypes="scccccscccccs" />
    <path
       inkscape:connector-curvature="0"
       style="opacity:1;fill:#ff9b3c;fill-opacity:0.25882354;stroke:#d3956a;stroke-width:0;stroke-miterlimit:4;stroke-dasharray:none;stroke-opacity:0.6449704"
       d="M 15.794253,8.1733175 C 10.570939,9.4540357 11.55294,12.873063 9.993574,14.712605 9.47734,15.971427 8.132812,15.786934 8.132812,15.786934 l -2.584198,5.369723 c 1.838788,1.907623 6.33841,11.002928 10.055499,4.532252 0.622918,-1.084371 3.452291,-1.932481 3.452291,-1.932481 0,0 0.548049,-0.367224 3.343339,0.312986 0.790362,-0.785927 2.634682,-3.181381 3.493141,-2.636266 C 34.045799,9.8200111 31.410335,11.4101 22.40014,9.462847 21.296483,9.480951 17.107946,8.2233746 15.794253,8.1733175 Z"
       id="path5240-2-3-0-3"
       sodipodi:nodetypes="ccccsccccc" />
    <path
       inkscape:connector-curvature="0"
       style="opacity:1;fill:#a05a2c;fill-opacity:1;stroke:#d3956a;stroke-width:0;stroke-miterlimit:4;stroke-dasharray:none;stroke-opacity:0.6449704"
       d="M 42.210736,6.69685 39.89579,7.907712 38.36055,7.5337074 c 1.535905,1.053852 -4.190918,4.7603266 -4.190918,4.7603266 -1.747253,5.371511 -1.784542,5.12438 -3.755551,4.969851 -5.984134,4.447228 -5.984134,4.447228 -5.984134,4.447228 0.319795,0.957911 7.196009,-2.898404 8.573699,-3.088005 6.557068,-0.902402 -2.651143,-1.296927 2.533316,-3.432014 0.175315,-3.255042 -1.146237,-0.996042 8.385556,-7.7496248 0.05822,-2.0387465 2.475438,-3.0173119 2.475438,-3.0173119 C 43.537391,2.9953165 44.085878,3.2657882 42.04046,2.4571835 L 41.768824,4.2092227 C 46.397956,4.4241573 44.34881,5.578503 42.210736,6.69685 Z"
       id="path5240-2-8-0-6"
       sodipodi:nodetypes="scccccscccccs" />
    <path
       inkscape:connector-curvature="0"
       style="opacity:1;fill:#a05a2c;fill-opacity:1;stroke:#d3956a;stroke-width:0;stroke-miterlimit:4;stroke-dasharray:none;stroke-opacity:0.6449704"
       d="M 30.367181,58.835105 29.078439,60.105727 28.41372,59.779043 C 25.69711,58.339334 24.971985,55.39434 24.971985,55.39434 21.860768,58.295508 14.508819,49.353737 13.417069,46.879192 c 0.414436,6.700526 -9.1330566,-4.989968 -9.1272351,-4.998983 -0.5619356,0.766508 5.275299,6.138706 4.3049761,6.860816 -0.2340374,0.174185 1.737813,-1.138559 5.305573,2.951001 7.417975,4.323935 2.472046,0.365585 13.787552,10.04452 2.337073,0.449387 3.173537,0.06581 5.997963,-0.401241 5.803609,1.285348 -3.203787,-0.57186 7.975024,-3.477537 l -5.765898,0.968115 c -1.889061,0.773101 -3.181398,2.774587 -5.527843,0.0092 z"
       id="path5240-2-8-0-4"
       sodipodi:nodetypes="ccccccsccccccc" />
    <path
       inkscape:connector-curvature="0"
       style="opacity:1;fill:#a05a2c;fill-opacity:1;stroke:#d3956a;stroke-width:0;stroke-miterlimit:4;stroke-dasharray:none;stroke-opacity:0.6449704"
       d="M 19.509957,8.4366986 22.51725,7.723145 c -1.268292,-1.3642 2.832327,-3.0216011 2.832327,-3.0216011 0.934998,-1.9426335 1.624453,-1.3397762 4.66302,-2.6141465 L 33.288841,0.82409637 C 28.766832,0.61493348 27.771909,1.0607003 25.67156,1.3464658 23.45728,1.6477323 30.012597,2.0873974 21.466849,5.199528 20.584006,8.33746 19.102647,6.862096 19.102647,6.862096 c -0.319665,3.36024 -8.275368,10.928193 0.40731,1.5746026 z"
       id="path5240-2-8-0-6-2"
       sodipodi:nodetypes="cccccsccc" />
    <ellipse
       style="opacity:1;fill:#ffccaa;fill-opacity:0.32544377;stroke:#d3956a;stroke-width:0;stroke-linejoin:round;stroke-miterlimit:4;stroke-dasharray:none;stroke-opacity:0.62745098"
       id="path5979"
       cx="29.682957"
       cy="30.301601"
       rx="27.062906"
       ry="27.320036" />
  </g>
</svg>
