<?xml version="1.0" encoding="UTF-8" standalone="no"?>
<!-- Created with Inkscape (http://www.inkscape.org/) -->

<svg
   xmlns:dc="http://purl.org/dc/elements/1.1/"
   xmlns:cc="http://creativecommons.org/ns#"
   xmlns:rdf="http://www.w3.org/1999/02/22-rdf-syntax-ns#"
   xmlns:svg="http://www.w3.org/2000/svg"
   xmlns="http://www.w3.org/2000/svg"
   xmlns:sodipodi="http://sodipodi.sourceforge.net/DTD/sodipodi-0.dtd"
   xmlns:inkscape="http://www.inkscape.org/namespaces/inkscape"
   width="25"
   height="25"
   id="svg4684"
   version="1.1"
   inkscape:version="0.91 r13725"
   viewBox="0 0 64 64"
   sodipodi:docname="mercury.svg">
  <defs
     id="defs4686" />
  <sodipodi:namedview
     id="base"
     pagecolor="#ffffff"
     bordercolor="#666666"
     borderopacity="1.0"
     inkscape:pageopacity="0.0"
     inkscape:pageshadow="2"
     inkscape:zoom="7.4216749"
     inkscape:cx="21.706277"
     inkscape:cy="37.191395"
     inkscape:current-layer="layer1"
     showgrid="true"
     inkscape:document-units="px"
     inkscape:grid-bbox="true"
     inkscape:window-width="1366"
     inkscape:window-height="745"
     inkscape:window-x="-8"
     inkscape:window-y="-8"
     inkscape:window-maximized="1" />
  <metadata
     id="metadata4689">
    <rdf:RDF>
      <cc:Work
         rdf:about="">
        <dc:format>image/svg+xml</dc:format>
        <dc:type
           rdf:resource="http://purl.org/dc/dcmitype/StillImage" />
        <dc:title />
      </cc:Work>
    </rdf:RDF>
  </metadata>
  <g
     id="layer1"
     inkscape:label="Layer 1"
     inkscape:groupmode="layer">
    <ellipse
       style="opacity:1;fill:#666666;fill-opacity:1;stroke:#d3956a;stroke-width:0;stroke-miterlimit:4;stroke-dasharray:none;stroke-opacity:0.6449704"
       id="path5232"
       cx="31.90909"
       cy="32.363636"
       rx="31.181818"
       ry="31.636364" />
    <ellipse
       style="opacity:1;fill:#666666;fill-opacity:1;stroke:#d3956a;stroke-width:0;stroke-miterlimit:4;stroke-dasharray:none;stroke-opacity:0.6449704"
       id="path5236"
       cx="30.818182"
       cy="27.272728"
       rx="28.454546"
       ry="23.454546" />
    <ellipse
       style="opacity:1;fill:#808080;fill-opacity:1;stroke:#d3956a;stroke-width:0;stroke-miterlimit:4;stroke-dasharray:none;stroke-opacity:0.6449704"
       id="path5240"
       cx="31.707106"
       cy="32.188278"
       rx="31.077204"
       ry="31.119431" />
    <path
       style="opacity:1;fill:#999999;fill-opacity:1;stroke:#d3956a;stroke-width:0;stroke-miterlimit:4;stroke-dasharray:none;stroke-opacity:0.6449704"
       id="path5248"
       sodipodi:type="arc"
       sodipodi:cx="30.427917"
       sodipodi:cy="31.139595"
       sodipodi:rx="28.83567"
       sodipodi:ry="28.660315"
       sodipodi:start="0"
       sodipodi:end="6.2788416"
       d="M 59.263588,31.139595 A 28.83567,28.660315 0 0 1 30.459231,59.799893 28.83567,28.660315 0 0 1 1.592315,31.201841 28.83567,28.660315 0 0 1 30.333977,2.4794326 28.83567,28.660315 0 0 1 59.263316,31.015103 l -28.835399,0.124492 z" />
    <path
       style="opacity:1;fill:#b3b3b3;fill-opacity:1;stroke:#79956a;stroke-width:0.5;stroke-miterlimit:4;stroke-dasharray:none;stroke-opacity:0.64497042"
       id="path5258"
       ry="23"
       rx="21.545454"
       cy="31.545454"
       cx="28.272728" />
    <g
       id="g5354"
       transform="matrix(1.0098057,0.00657302,-0.00667629,1.0103067,0.03692029,-0.63339487)"
       style="fill:#b3b3b3">
      <path
         d="M 50.777176,29.737461 A 22.492905,21.914364 0 0 1 28.396842,51.651551 22.492905,21.914364 0 0 1 5.7924933,29.956808 22.492905,21.914364 0 0 1 27.946571,7.8255672 22.492905,21.914364 0 0 1 50.772669,29.298789"
         sodipodi:open="true"
         sodipodi:end="6.2631664"
         sodipodi:start="0"
         sodipodi:ry="21.914364"
         sodipodi:rx="22.492905"
         sodipodi:cy="29.737461"
         sodipodi:cx="28.284271"
         sodipodi:type="arc"
         id="path5310"
         style="opacity:1;fill:#b3b3b3;fill-opacity:1;stroke:#79956a;stroke-width:0;stroke-linejoin:round;stroke-miterlimit:4;stroke-dasharray:none;stroke-opacity:0.6449704" />
      <path
         d="m 26.220306,49.279324 a 5.3927994,5.5856457 0 0 1 -5.36581,5.585575 5.3927994,5.5856457 0 0 1 -5.419518,-5.529667 5.3927994,5.5856457 0 0 1 5.311564,-5.640925 5.3927994,5.5856457 0 0 1 5.472684,5.473206"
         sodipodi:open="true"
         sodipodi:end="6.2631664"
         sodipodi:start="0"
         sodipodi:ry="5.5856457"
         sodipodi:rx="5.3927994"
         sodipodi:cy="49.279324"
         sodipodi:cx="20.827507"
         sodipodi:type="arc"
         id="path5312"
         style="opacity:1;fill:#b3b3b3;fill-opacity:1;stroke:#79956a;stroke-width:0;stroke-linejoin:round;stroke-miterlimit:4;stroke-dasharray:none;stroke-opacity:0.6449704" />
      <path
         d="m 44.612013,48.82935 a 3.9212284,3.9855111 0 0 1 -3.901604,3.985461 3.9212284,3.9855111 0 0 1 -3.940657,-3.945569 3.9212284,3.9855111 0 0 1 3.862161,-4.024954 3.9212284,3.9855111 0 0 1 3.979314,3.905281"
         sodipodi:open="true"
         sodipodi:end="6.2631664"
         sodipodi:start="0"
         sodipodi:ry="3.9855111"
         sodipodi:rx="3.9212284"
         sodipodi:cy="48.82935"
         sodipodi:cx="40.690784"
         sodipodi:type="arc"
         id="path5314"
         style="opacity:1;fill:#b3b3b3;fill-opacity:1;stroke:#79956a;stroke-width:0;stroke-linejoin:round;stroke-miterlimit:4;stroke-dasharray:none;stroke-opacity:0.6449704" />
      <path
         d="m 55.925715,27.166162 a 7.7781744,8.2924337 0 0 1 -7.739246,8.29233 7.7781744,8.2924337 0 0 1 -7.816713,-8.209328 7.7781744,8.2924337 0 0 1 7.661007,-8.374501 7.7781744,8.2924337 0 0 1 7.893394,8.125505"
         sodipodi:open="true"
         sodipodi:end="6.2631664"
         sodipodi:start="0"
         sodipodi:ry="8.2924337"
         sodipodi:rx="7.7781744"
         sodipodi:cy="27.166162"
         sodipodi:cx="48.147541"
         sodipodi:type="arc"
         id="path5316"
         style="opacity:1;fill:#b3b3b3;fill-opacity:1;stroke:#79956a;stroke-width:0;stroke-linejoin:round;stroke-miterlimit:4;stroke-dasharray:none;stroke-opacity:0.6449704" />
      <path
         d="M 11.696204,31.151678 A 4.0465941,4.4322877 0 0 1 7.6698621,35.58391 4.0465941,4.4322877 0 0 1 3.6032186,31.196042 4.0465941,4.4322877 0 0 1 7.588856,26.71989 a 4.0465941,4.4322877 0 0 1 4.106537,4.343064"
         sodipodi:open="true"
         sodipodi:end="6.2631664"
         sodipodi:start="0"
         sodipodi:ry="4.4322877"
         sodipodi:rx="4.0465941"
         sodipodi:cy="31.151678"
         sodipodi:cx="7.64961"
         sodipodi:type="arc"
         id="path5320"
         style="opacity:1;fill:#b3b3b3;fill-opacity:1;stroke:#79956a;stroke-width:0;stroke-linejoin:round;stroke-miterlimit:4;stroke-dasharray:none;stroke-opacity:0.6449704" />
      <path
         d="m 40.112237,11.095557 a 6.1711135,5.9782658 0 0 1 -6.140228,5.978191 6.1711135,5.9782658 0 0 1 -6.201689,-5.918353 6.1711135,5.9782658 0 0 1 6.078153,-6.0374297 6.1711135,5.9782658 0 0 1 6.262528,5.8579217"
         sodipodi:open="true"
         sodipodi:end="6.2631664"
         sodipodi:start="0"
         sodipodi:ry="5.9782658"
         sodipodi:rx="6.1711135"
         sodipodi:cy="11.095557"
         sodipodi:cx="33.941124"
         sodipodi:type="arc"
         id="path5322"
         style="opacity:1;fill:#b3b3b3;fill-opacity:1;stroke:#79956a;stroke-width:0;stroke-linejoin:round;stroke-miterlimit:4;stroke-dasharray:none;stroke-opacity:0.6449704" />
      <path
         d="m 14.013568,15.723891 a 2.378448,2.6355774 0 0 1 -2.366544,2.635545 2.378448,2.6355774 0 0 1 -2.3902325,-2.609164 2.378448,2.6355774 0 0 1 2.3426195,-2.661661 2.378448,2.6355774 0 0 1 2.413681,2.582522"
         sodipodi:open="true"
         sodipodi:end="6.2631664"
         sodipodi:start="0"
         sodipodi:ry="2.6355774"
         sodipodi:rx="2.378448"
         sodipodi:cy="15.723891"
         sodipodi:cx="11.63512"
         sodipodi:type="arc"
         id="path5332"
         style="opacity:1;fill:#b3b3b3;fill-opacity:1;stroke:#79956a;stroke-width:0;stroke-linejoin:round;stroke-miterlimit:4;stroke-dasharray:none;stroke-opacity:0.6449704" />
    </g>
    <path
       style="opacity:1;fill:#999999;fill-opacity:1;stroke:#79956a;stroke-width:0;stroke-linejoin:round;stroke-miterlimit:4;stroke-dasharray:none;stroke-opacity:0.6449704"
       id="path5379"
       sodipodi:type="arc"
       sodipodi:cx="7.1934566"
       sodipodi:cy="30.958828"
       sodipodi:rx="3.2017713"
       sodipodi:ry="3.7160308"
       sodipodi:start="0"
       sodipodi:end="6.2788394"
       d="m 10.395228,30.958828 a 3.2017713,3.7160308 0 0 1 -3.1982927,3.716029 3.2017713,3.7160308 0 0 1 -3.2052424,-3.707954 3.2017713,3.7160308 0 0 1 3.1913278,-3.724086 3.2017713,3.7160308 0 0 1 3.2121773,3.699861 l -3.2017414,0.01615 z" />
    <path
       style="opacity:1;fill:#999999;fill-opacity:1;stroke:#79956a;stroke-width:0;stroke-linejoin:round;stroke-miterlimit:4;stroke-dasharray:none;stroke-opacity:0.6449704"
       id="path5383"
       sodipodi:type="arc"
       sodipodi:cx="34.262543"
       sodipodi:cy="11.288404"
       sodipodi:rx="5.7211375"
       sodipodi:ry="5.9139848"
       sodipodi:start="0"
       sodipodi:end="6.2788394"
       d="m 39.98368,11.288404 a 5.7211375,5.9139848 0 0 1 -5.714921,5.913982 5.7211375,5.9139848 0 0 1 -5.72734,-5.901131 5.7211375,5.9139848 0 0 1 5.702476,-5.9268039 5.7211375,5.9139848 0 0 1 5.739731,5.8882519 l -5.721083,0.0257 z" />
    <path
       style="opacity:1;fill:#999999;fill-opacity:1;stroke:#79956a;stroke-width:0;stroke-linejoin:round;stroke-miterlimit:4;stroke-dasharray:none;stroke-opacity:0.6449704"
       id="path5393"
       sodipodi:type="arc"
       sodipodi:cx="48.313766"
       sodipodi:cy="27.128511"
       sodipodi:rx="7.5210447"
       sodipodi:ry="7.7781744"
       sodipodi:start="0"
       sodipodi:end="6.2631664"
       sodipodi:open="true"
       d="m 55.834811,27.128511 a 7.5210447,7.7781744 0 0 1 -7.483404,7.778077 7.5210447,7.7781744 0 0 1 -7.558308,-7.700223 7.5210447,7.7781744 0 0 1 7.407749,-7.855151 7.5210447,7.7781744 0 0 1 7.632456,7.621597" />
    <path
       style="opacity:1;fill:#999999;fill-opacity:1;stroke:#79956a;stroke-width:0;stroke-linejoin:round;stroke-miterlimit:4;stroke-dasharray:none;stroke-opacity:0.6449704"
       id="path5405"
       sodipodi:type="arc"
       sodipodi:cx="20.628485"
       sodipodi:cy="49.378834"
       sodipodi:rx="4.8792901"
       sodipodi:ry="5.0430827"
       sodipodi:start="0"
       sodipodi:end="6.2631664"
       sodipodi:open="true"
       d="m 25.507775,49.378834 a 4.8792901,5.0430827 0 0 1 -4.854871,5.043019 4.8792901,5.0430827 0 0 1 -4.903465,-4.992542 4.8792901,5.0430827 0 0 1 4.80579,-5.092992 4.8792901,5.0430827 0 0 1 4.951568,4.941565" />
    <path
       style="opacity:1;fill:#999999;fill-opacity:1;stroke:#79956a;stroke-width:0;stroke-linejoin:round;stroke-miterlimit:4;stroke-dasharray:none;stroke-opacity:0.6449704"
       id="path5409"
       sodipodi:type="arc"
       sodipodi:cx="40.819347"
       sodipodi:cy="48.893627"
       sodipodi:rx="3.5355334"
       sodipodi:ry="3.5355332"
       sodipodi:start="0"
       sodipodi:end="6.2631664"
       sodipodi:open="true"
       d="m 44.354881,48.893627 a 3.5355334,3.5355332 0 0 1 -3.517839,3.535489 3.5355334,3.5355332 0 0 1 -3.553051,-3.500101 3.5355334,3.5355332 0 0 1 3.482275,-3.570523 3.5355334,3.5355332 0 0 1 3.587906,3.464362" />
    <path
       style="opacity:1;fill:#999999;fill-opacity:1;stroke:#79956a;stroke-width:0;stroke-linejoin:round;stroke-miterlimit:4;stroke-dasharray:none;stroke-opacity:0.6449704"
       id="path5411"
       sodipodi:type="arc"
       sodipodi:cx="33.74828"
       sodipodi:cy="35.522881"
       sodipodi:rx="1.9927555"
       sodipodi:ry="2.1213202"
       sodipodi:start="0"
       sodipodi:end="6.2631664"
       sodipodi:open="true"
       d="m 35.741035,35.522881 a 1.9927555,2.1213202 0 0 1 -1.982782,2.121293 1.9927555,2.1213202 0 0 1 -2.002629,-2.100061 1.9927555,2.1213202 0 0 1 1.962737,-2.142314 1.9927555,2.1213202 0 0 1 2.022275,2.078618" />
    <path
       style="opacity:1;fill:#999999;fill-opacity:1;stroke:#79956a;stroke-width:0;stroke-linejoin:round;stroke-miterlimit:4;stroke-dasharray:none;stroke-opacity:0.6449704"
       id="path5415"
       sodipodi:type="arc"
       sodipodi:cx="23.655935"
       sodipodi:cy="27.359011"
       sodipodi:rx="11.313708"
       sodipodi:ry="11.313708"
       sodipodi:start="0"
       sodipodi:end="6.2631664"
       sodipodi:open="true"
       d="M 34.969644,27.359011 A 11.313708,11.313708 0 0 1 23.712557,38.672577 11.313708,11.313708 0 0 1 12.342794,27.472253 11.313708,11.313708 0 0 1 23.486076,16.046578 11.313708,11.313708 0 0 1 34.967377,27.132538" />
    <ellipse
       style="opacity:1;fill:#999999;fill-opacity:1;stroke:#79956a;stroke-width:0;stroke-linejoin:round;stroke-miterlimit:4;stroke-dasharray:none;stroke-opacity:0.6449704"
       id="path5425"
       cx="57.01852"
       cy="31.151676"
       rx="0.96423417"
       ry="3.0212719" />
    <path
       style="opacity:1;fill:#b3b3b3;fill-opacity:1;stroke:#79956a;stroke-width:0;stroke-linejoin:round;stroke-miterlimit:4;stroke-dasharray:none;stroke-opacity:0.6449704"
       id="path5429"
       sodipodi:type="arc"
       sodipodi:cx="44.106552"
       sodipodi:cy="46.21917"
       sodipodi:rx="1.8479255"
       sodipodi:ry="2.0674"
       sodipodi:start="0"
       sodipodi:end="6.2631664"
       sodipodi:open="true"
       d="m 45.954478,46.21917 a 1.8479255,2.0674 0 0 1 -1.838678,2.067374 1.8479255,2.0674 0 0 1 -1.857081,-2.046681 1.8479255,2.0674 0 0 1 1.820089,-2.08786 1.8479255,2.0674 0 0 1 1.875299,2.025782" />
    <path
       style="opacity:1;fill:#999999;fill-opacity:1;stroke:#79956a;stroke-width:0;stroke-linejoin:round;stroke-miterlimit:4;stroke-dasharray:none;stroke-opacity:0.6449704"
       id="path5433"
       sodipodi:type="arc"
       sodipodi:cx="43.811092"
       sodipodi:cy="46.146191"
       sodipodi:rx="1.749886"
       sodipodi:ry="1.821968"
       sodipodi:start="0"
       sodipodi:end="6.2631664"
       sodipodi:open="true"
       d="m 45.560978,46.146191 a 1.749886,1.821968 0 0 1 -1.741128,1.821945 1.749886,1.821968 0 0 1 -1.758556,-1.803709 1.749886,1.821968 0 0 1 1.723526,-1.839999 1.749886,1.821968 0 0 1 1.775808,1.785291" />
    <path
       style="opacity:1;fill:#999999;fill-opacity:1;stroke:#79956a;stroke-width:0;stroke-linejoin:round;stroke-miterlimit:4;stroke-dasharray:none;stroke-opacity:0.6449704"
       id="path5441"
       sodipodi:type="arc"
       sodipodi:cx="43.090908"
       sodipodi:cy="48.318184"
       sodipodi:rx="1.1818181"
       sodipodi:ry="1.0454545"
       sodipodi:start="0"
       sodipodi:end="6.2631664"
       sodipodi:open="true"
       d="m 44.272726,48.318184 a 1.1818181,1.0454545 0 0 1 -1.175903,1.045441 1.1818181,1.0454545 0 0 1 -1.187674,-1.034977 1.1818181,1.0454545 0 0 1 1.164016,-1.055801 1.1818181,1.0454545 0 0 1 1.199324,1.024409" />
    <rect
       style="opacity:1;fill:#999999;fill-opacity:1;stroke:#79956a;stroke-width:0;stroke-linejoin:round;stroke-miterlimit:4;stroke-dasharray:none;stroke-opacity:0.6449704"
       id="rect5449"
       width="0.65909231"
       height="0.47727203"
       x="55.522728"
       y="30.90909" />
    <rect
       style="opacity:1;fill:#999999;fill-opacity:1;stroke:#79956a;stroke-width:0;stroke-linejoin:round;stroke-miterlimit:4;stroke-dasharray:none;stroke-opacity:0.6449704"
       id="rect5451"
       width="1.6136364"
       height="0.65909094"
       x="57.659092"
       y="30.545454" />
    <rect
       style="opacity:1;fill:#999999;fill-opacity:1;stroke:#79956a;stroke-width:0;stroke-linejoin:round;stroke-miterlimit:4;stroke-dasharray:none;stroke-opacity:0.6449704"
       id="rect5453"
       width="1"
       height="0.77272725"
       x="55.43182"
       y="31" />
    <path
       style="opacity:1;fill:#b3b3b3;fill-opacity:1;stroke:#79956a;stroke-width:0;stroke-linejoin:round;stroke-miterlimit:4;stroke-dasharray:none;stroke-opacity:0.6449704"
       id="path5457"
       sodipodi:type="arc"
       sodipodi:cx="27.807629"
       sodipodi:cy="8.4012928"
       sodipodi:rx="1.2621727"
       sodipodi:ry="1.2350729"
       sodipodi:start="0"
       sodipodi:end="6.2788394"
       d="M 29.069801,8.4012928 A 1.2621727,1.2350729 0 0 1 27.809,9.6363649 1.2621727,1.2350729 0 0 1 26.545459,8.4039766 1.2621727,1.2350729 0 0 1 27.803515,7.1662265 1.2621727,1.2350729 0 0 1 29.069789,8.3959253 l -1.26216,0.00537 z" />
    <path
       style="opacity:1;fill:#999999;fill-opacity:1;stroke:#79956a;stroke-width:0;stroke-linejoin:round;stroke-miterlimit:4;stroke-dasharray:none;stroke-opacity:0.6449704"
       id="path5463"
       sodipodi:type="arc"
       sodipodi:cx="27.763592"
       sodipodi:cy="8.7345171"
       sodipodi:rx="1.0564831"
       sodipodi:ry="1.2305027"
       sodipodi:start="0"
       sodipodi:end="6.2788394"
       d="m 28.820075,8.7345171 a 1.0564831,1.2305027 0 0 1 -1.055335,1.230502 1.0564831,1.2305027 0 0 1 -1.057629,-1.2278282 1.0564831,1.2305027 0 0 1 1.053037,-1.23317 1.0564831,1.2305027 0 0 1 1.059917,1.2251486 l -1.056473,0.00535 z" />
    <path
       style="opacity:1;fill:#999999;fill-opacity:1;stroke:#79956a;stroke-width:0;stroke-linejoin:round;stroke-miterlimit:4;stroke-dasharray:none;stroke-opacity:0.6449704"
       id="path5465"
       sodipodi:type="arc"
       sodipodi:cx="36.689201"
       sodipodi:cy="11.191979"
       sodipodi:rx="3.2301924"
       sodipodi:ry="0.70710677"
       sodipodi:start="0"
       sodipodi:end="6.2788394"
       d="m 39.919394,11.191979 a 3.2301924,0.70710677 0 0 1 -3.226683,0.707107 3.2301924,0.70710677 0 0 1 -3.233694,-0.70557 3.2301924,0.70710677 0 0 1 3.219656,-0.70864 3.2301924,0.70710677 0 0 1 3.24069,0.70403 l -3.230162,0.0031 z" />
  </g>
</svg>
