<?xml version="1.0" encoding="UTF-8" standalone="no"?>
<!-- Created with Inkscape (http://www.inkscape.org/) -->

<svg
   xmlns:dc="http://purl.org/dc/elements/1.1/"
   xmlns:cc="http://creativecommons.org/ns#"
   xmlns:rdf="http://www.w3.org/1999/02/22-rdf-syntax-ns#"
   xmlns:svg="http://www.w3.org/2000/svg"
   xmlns="http://www.w3.org/2000/svg"
   xmlns:sodipodi="http://sodipodi.sourceforge.net/DTD/sodipodi-0.dtd"
   xmlns:inkscape="http://www.inkscape.org/namespaces/inkscape"
   width="34"
   height="34"
   id="svg4684"
   version="1.1"
   inkscape:version="0.91 r13725"
   viewBox="0 0 64 64"
   sodipodi:docname="neptune.svg">
  <defs
     id="defs4686">
    <filter
       inkscape:collect="always"
       style="color-interpolation-filters:sRGB"
       id="filter4391"
       x="-0.05227683"
       width="1.1045537"
       y="-0.017452015"
       height="1.034904">
      <feGaussianBlur
         inkscape:collect="always"
         stdDeviation="0.35592744"
         id="feGaussianBlur4393" />
    </filter>
    <filter
       inkscape:collect="always"
       style="color-interpolation-filters:sRGB"
       id="filter4821"
       x="-0.093173855"
       width="1.1863477"
       y="-0.01438339"
       height="1.0287668">
      <feGaussianBlur
         inkscape:collect="always"
         stdDeviation="0.40283194"
         id="feGaussianBlur4823" />
    </filter>
    <filter
       inkscape:collect="always"
       style="color-interpolation-filters:sRGB"
       id="filter4833"
       x="-0.052481564"
       width="1.1049631"
       y="-0.033568194"
       height="1.0671364">
      <feGaussianBlur
         inkscape:collect="always"
         stdDeviation="0.53788676"
         id="feGaussianBlur4835" />
    </filter>
    <filter
       inkscape:collect="always"
       style="color-interpolation-filters:sRGB"
       id="filter5184"
       x="-0.017736245"
       width="1.0354725"
       y="-0.03710379"
       height="1.0742076">
      <feGaussianBlur
         inkscape:collect="always"
         stdDeviation="0.44071265"
         id="feGaussianBlur5186" />
    </filter>
    <filter
       inkscape:collect="always"
       style="color-interpolation-filters:sRGB"
       id="filter5200"
       x="-0.025279942"
       width="1.0505599"
       y="-0.063004135"
       height="1.1260083">
      <feGaussianBlur
         inkscape:collect="always"
         stdDeviation="0.63722976"
         id="feGaussianBlur5202" />
    </filter>
    <filter
       inkscape:collect="always"
       style="color-interpolation-filters:sRGB"
       id="filter5212"
       x="-0.074656445"
       width="1.1493129"
       y="-0.13442253"
       height="1.2688451">
      <feGaussianBlur
         inkscape:collect="always"
         stdDeviation="0.15517192"
         id="feGaussianBlur5214" />
    </filter>
    <filter
       inkscape:collect="always"
       style="color-interpolation-filters:sRGB"
       id="filter5236"
       x="-0.038527147"
       width="1.0770543"
       y="-0.063649565"
       height="1.1272991">
      <feGaussianBlur
         inkscape:collect="always"
         stdDeviation="0.13040534"
         id="feGaussianBlur5238" />
    </filter>
    <filter
       inkscape:collect="always"
       style="color-interpolation-filters:sRGB"
       id="filter5264"
       x="-0.031554262"
       width="1.0631085"
       y="-0.11164288"
       height="1.2232858">
      <feGaussianBlur
         inkscape:collect="always"
         stdDeviation="0.48871645"
         id="feGaussianBlur5266" />
    </filter>
    <filter
       inkscape:collect="always"
       style="color-interpolation-filters:sRGB"
       id="filter5284"
       x="-0.025523741"
       width="1.0510475"
       y="-0.077505168"
       height="1.1550103">
      <feGaussianBlur
         inkscape:collect="always"
         stdDeviation="0.51195514"
         id="feGaussianBlur5286" />
    </filter>
    <filter
       inkscape:collect="always"
       style="color-interpolation-filters:sRGB"
       id="filter5296"
       x="-0.041585845"
       width="1.0831717"
       y="-0.043506015"
       height="1.087012">
      <feGaussianBlur
         inkscape:collect="always"
         stdDeviation="0.31015909"
         id="feGaussianBlur5298" />
    </filter>
    <filter
       inkscape:collect="always"
       style="color-interpolation-filters:sRGB"
       id="filter5316"
       x="-0.024100497"
       width="1.048201"
       y="-0.11406614"
       height="1.2281323">
      <feGaussianBlur
         inkscape:collect="always"
         stdDeviation="0.43734303"
         id="feGaussianBlur5318" />
    </filter>
    <filter
       inkscape:collect="always"
       style="color-interpolation-filters:sRGB"
       id="filter5336"
       x="-0.031018907"
       width="1.0620378"
       y="-0.051183364"
       height="1.1023667">
      <feGaussianBlur
         inkscape:collect="always"
         stdDeviation="0.30743854"
         id="feGaussianBlur5338" />
    </filter>
  </defs>
  <sodipodi:namedview
     id="base"
     pagecolor="#ffffff"
     bordercolor="#666666"
     borderopacity="1.0"
     inkscape:pageopacity="0.0"
     inkscape:pageshadow="2"
     inkscape:zoom="8.0000001"
     inkscape:cx="22.098963"
     inkscape:cy="28.060731"
     inkscape:current-layer="layer1"
     showgrid="true"
     inkscape:document-units="px"
     inkscape:grid-bbox="true"
     inkscape:window-width="1366"
     inkscape:window-height="745"
     inkscape:window-x="-8"
     inkscape:window-y="-8"
     inkscape:window-maximized="1" />
  <metadata
     id="metadata4689">
    <rdf:RDF>
      <cc:Work
         rdf:about="">
        <dc:format>image/svg+xml</dc:format>
        <dc:type
           rdf:resource="http://purl.org/dc/dcmitype/StillImage" />
        <dc:title></dc:title>
      </cc:Work>
    </rdf:RDF>
  </metadata>
  <g
     id="layer1"
     inkscape:label="Layer 1"
     inkscape:groupmode="layer">
    <ellipse
       style="opacity:1;fill:#0055d4;fill-opacity:0.71005917;stroke:#d3956a;stroke-width:0;stroke-miterlimit:4;stroke-dasharray:none;stroke-opacity:0.6449704"
       id="path5232"
       cx="31.90909"
       cy="32.363636"
       rx="31.181818"
       ry="31.636364" />
    <path
       style="opacity:1;fill:#b3b3b3;fill-opacity:1;stroke:#79956a;stroke-width:0.5;stroke-miterlimit:4;stroke-dasharray:none;stroke-opacity:0.64497042"
       id="path5258"
       ry="23"
       rx="21.545454"
       cy="31.545454"
       cx="28.272728" />
    <ellipse
       style="opacity:1;fill:#87aade;fill-opacity:1;stroke:#d3956a;stroke-width:0;stroke-miterlimit:4;stroke-dasharray:none;stroke-opacity:0.6449704"
       id="path5240"
       cx="29.917429"
       cy="34.093952"
       rx="30.796024"
       ry="31.098421"
       transform="matrix(0.99744448,-0.07144578,0.05460473,0.99850805,0,0)" />
    <path
       inkscape:connector-curvature="0"
       style="opacity:0.372;fill:#afc6e9;fill-opacity:0.98224852;stroke:#d3956a;stroke-width:0;stroke-miterlimit:4;stroke-dasharray:none;stroke-opacity:0.25443785;filter:url(#filter5336)"
       d="M 0.62735626,30.627911 C 15.196616,23.531297 24.398924,21.911003 24.398924,21.911003 16.727423,22.368936 15.254833,20.995438 4.4942065,16.332979 1.0235216,22.452786 0.62735626,30.627911 0.62735626,30.627911 Z"
       id="path5232-3-2"
       sodipodi:nodetypes="cccc"
       transform="matrix(1.0797516,-0.03048525,-0.00178583,1.0296651,0.28908025,-0.28883092)" />
    <path
       style="opacity:0.7;fill:#5f8dd3;fill-opacity:0.81065087;stroke:#d3956a;stroke-width:0;stroke-miterlimit:4;stroke-dasharray:none;stroke-opacity:0.62745098;filter:url(#filter5184)"
       d="m 58.662312,16.675385 c -27.60973,8.869804 -43.390959,8.348553 -57.3122183,13.64642 0.107669,0.684471 0.361321,6.097146 0.361321,6.097146 20.6086163,0.64315 40.8506823,-2.21379 59.8099903,-13.251599 -0.0048,-0.01234 -0.813363,-3.413231 -2.859093,-6.491967 z M 1.7708612,39.3817 c -0.326981,-0.399808 0.614463,4.200734 0,0 z"
       id="path5232-3-29"
       inkscape:connector-curvature="0"
       sodipodi:nodetypes="ccccccc"
       transform="matrix(0.99864438,-0.07153173,0.05464768,0.99929349,-2.2732785,1.8249549)" />
    <path
       style="opacity:0.432;fill:#5555ff;fill-opacity:0.81656805;stroke:#d3956a;stroke-width:0;stroke-miterlimit:4;stroke-dasharray:none;stroke-opacity:0.6449704;filter:url(#filter5284)"
       d="m 39.101562,44.748047 c -5.749009,1.844233 -11.50862,8.560104 -28.658203,9.746094 l 4.055883,3.392332 c 28.290934,-7.233403 31.450368,-7.163884 40.751222,-6.162725 1.639944,-2.190448 3.926868,-5.970429 3.926868,-5.970429 0,0 -1.505018,0.22538 -5.061569,0.552639 -6.059895,-0.02665 -8.329788,-1.291167 -10.059122,-1.942677 -1.885181,-0.947775 -4.955079,0.384766 -4.955079,0.384766 z"
       id="path5232-3-4"
       inkscape:connector-curvature="0"
       sodipodi:nodetypes="cccccccc"
       transform="matrix(0.99864438,-0.07153173,0.05464768,0.99929349,-1.6576899,2.3228448)" />
    <path
       inkscape:connector-curvature="0"
       style="opacity:0.6;fill:#5555ff;fill-opacity:0.34911242;stroke:#d3956a;stroke-width:0;stroke-miterlimit:4;stroke-dasharray:none;stroke-opacity:0.6449704;filter:url(#filter4821)"
       d="M 11.171297,57.861932 C 24.818074,58.274121 45.914064,38.407324 54.78398,32.532019 36.567865,44.836651 9.261447,52.012738 5.8641954,48.534204 Z"
       id="path5232-3-2-4-09"
       sodipodi:nodetypes="cccc"
       transform="matrix(1.2009761,-0.0860245,0.04985389,0.91163363,-4.6365836,4.3523895)" />
    <path
       style="opacity:0.7;fill:#2a2aff;fill-opacity:0.53254437;stroke:#d3956a;stroke-width:0;stroke-miterlimit:4;stroke-dasharray:none;stroke-opacity:0.25443785;filter:url(#filter5264)"
       d="m 15.837891,58.625 c 2.530393,1.339342 5.351294,2.565136 8.534257,3.649415 9.118295,1.206769 20.417716,-6.889981 26.170821,-5.690431 l 2.808593,-2.568359 C 38.998969,51.717174 27.817665,57.473654 15.837891,58.625 Z"
       id="path5232-3-2-9"
       inkscape:connector-curvature="0"
       sodipodi:nodetypes="ccccc"
       transform="matrix(0.99864438,-0.07153173,0.05464768,0.99929349,-1.6576899,2.3228448)" />
    <path
       style="opacity:0.6;fill:#d7e3f4;fill-opacity:0.43195268;stroke:#d3956a;stroke-width:0;stroke-miterlimit:4;stroke-dasharray:none;stroke-opacity:0.62745098;filter:url(#filter5200)"
       d="M 33.849289,0.88083941 C 38.278633,27.605541 27.921534,54.72172 24.48922,62.645803 c 0.66753,0.149749 4.343447,0.610006 4.785517,0.714299 0.106925,-0.03546 -0.999296,-0.07526 -0.230911,-0.0181 C 34.489247,51.017062 43.036519,18.684975 39.661146,2.0599065 37.333055,1.704479 37.148905,1.1289306 33.849289,0.88083941 Z M 29.274737,63.360102 c -0.484749,0.160767 4.080128,0.962585 0,0 z"
       id="path5232-3"
       inkscape:connector-curvature="0"
       sodipodi:nodetypes="cccccccc"
       transform="matrix(0.41949519,0.91741789,-0.90215828,0.42659077,47.388992,-10.751627)" />
    <path
       inkscape:connector-curvature="0"
       style="opacity:0.58;fill:#5599ff;fill-opacity:0.45562134;stroke:#d3956a;stroke-width:0;stroke-miterlimit:4;stroke-dasharray:none;stroke-opacity:0.6449704;filter:url(#filter4833)"
       d="m 55.943337,48.336713 c -8.924822,6.96326 -23.063847,9.544062 -39.908569,8.642615 13.043854,9.136575 30.882208,9.663143 44.705488,-2.313677 z"
       id="path5232-3-4-5"
       sodipodi:nodetypes="cccc"
       transform="matrix(-0.47055231,0.01533254,-0.0194414,0.49906446,35.966567,-13.487139)" />
    <path
       style="opacity:0.415;fill:#5f8dd3;fill-opacity:0.69230771;stroke:#d3956a;stroke-width:0;stroke-miterlimit:4;stroke-dasharray:none;stroke-opacity:0.6449704;filter:url(#filter5316)"
       d="m 33.808166,49.082698 c -5.408009,1.276284 0,0 -19.489109,4.33277 l -4.4119764,-0.131229 -1.920859,2.450627 c 7.1573044,4.209839 14.3259144,2.938504 18.9006634,1.935452 0,0 4.511312,-4.929486 23.915847,-10.030683 l -1.727525,-1.049456 c -7.28465,0.523314 0.624822,-0.168782 -15.267041,2.492519 z"
       id="path5232-3-4-8-3"
       inkscape:connector-curvature="0"
       sodipodi:nodetypes="cccccccc"
       transform="matrix(0.9811594,0.09764939,-0.11428071,0.96441146,7.2621223,-43.072301)" />
    <path
       inkscape:connector-curvature="0"
       style="opacity:0.47;fill:#5555ff;fill-opacity:0.60946745;stroke:#d3956a;stroke-width:0;stroke-miterlimit:4;stroke-dasharray:none;stroke-opacity:0.6449704;filter:url(#filter5296)"
       d="M 10.371647,68.76676 C 13.049957,65.67361 24.365106,56.93433 28.084476,53.185882 25.048223,55.127488 22.044653,49.318705 12.170888,53.061241 11.738786,54.52387 9.7247452,61.127861 10.371647,68.76676 Z"
       id="path5232-3-2-4-09-5"
       sodipodi:nodetypes="cccc"
       transform="matrix(-1.2027504,0.0128541,0.00558762,-0.91391425,74.4297,92.078161)" />
    <path
       style="opacity:0.5;fill:#3771c8;fill-opacity:0.51479337;stroke:#d3956a;stroke-width:0;stroke-miterlimit:4;stroke-dasharray:none;stroke-opacity:0.6449704;filter:url(#filter4391)"
       d="m 23.057977,47.41488 c -6.915522,2.80201 -6.724559,2.736612 -10.988195,5.341545 l -2.052228,1.478218 c 1.252192,1.374895 -1.7329094,-1.928242 1.461431,1.379731 29.331394,-2.735588 23.078283,-9.671993 33.855895,-10.884704 2.447291,-0.02171 6.993025,-0.212328 12.433941,4.525014 l 1.050251,-1.810149 -6.491167,-2.927193 c -3.620948,-1.242627 -6.765439,-2.719746 -10.57439,-2.639873 -7.895914,-0.3679 -12.855053,3.170981 -18.695538,5.537411 z"
       id="path5232-3-4-8"
       inkscape:connector-curvature="0"
       sodipodi:nodetypes="sccccccccs"
       transform="matrix(-0.98770697,0.00665353,0.01237612,-0.96940002,62.817706,62.032549)" />
    <path
       style="opacity:0.6;fill:#87aade;fill-opacity:0.33136094;stroke:#d3956a;stroke-width:0;stroke-miterlimit:4;stroke-dasharray:none;stroke-opacity:0.62745098"
       d="M 39.747096,2.1406198 C 42.621213,29.081674 31.807275,55.23209 29.027714,63.127174 c 5.832473,0.122875 4.73921,0.08213 5.832473,0.122875 5.250019,-10.652738 8.087829,-26.695954 7.372514,-60.4104244 0,0 0.814012,-0.4509145 -2.485605,-0.6990048 z"
       id="path5232-3-45"
       inkscape:connector-curvature="0"
       sodipodi:nodetypes="ccccc"
       transform="matrix(0.41949519,0.91741789,-0.90215828,0.42659077,47.388992,-10.751627)" />
    <path
       style="opacity:0.85;fill:#e3dedb;fill-opacity:0.18934911;stroke:#d3956a;stroke-width:0;stroke-miterlimit:4;stroke-dasharray:none;stroke-opacity:0.6449704"
       id="path4204"
       sodipodi:type="arc"
       sodipodi:cx="28.698565"
       sodipodi:cy="31.43483"
       sodipodi:rx="26.825424"
       sodipodi:ry="27.283203"
       sodipodi:start="0"
       sodipodi:end="6.2788045"
       sodipodi:open="true"
       d="M 55.523989,31.43483 A 26.825424,27.283203 0 0 1 28.727944,58.718016 26.825424,27.283203 0 0 1 1.8732047,31.494591 26.825424,27.283203 0 0 1 28.610427,4.1517739 26.825424,27.283203 0 0 1 55.523731,31.315308" />
    <path
       style="opacity:1;fill:#87aade;fill-opacity:1;stroke:#d3956a;stroke-width:0;stroke-miterlimit:4;stroke-dasharray:none;stroke-opacity:0.2071006;filter:url(#filter5236)"
       id="path4940"
       sodipodi:type="arc"
       sodipodi:cx="10.487514"
       sodipodi:cy="39.542831"
       sodipodi:rx="4.0971913"
       sodipodi:ry="2.398942"
       sodipodi:start="0"
       sodipodi:end="6.2788045"
       sodipodi:open="true"
       d="m 14.584705,39.542831 a 4.0971913,2.398942 0 0 1 -4.092704,2.398941 4.0971913,2.398942 0 0 1 -4.101669,-2.393686 4.0971913,2.398942 0 0 1 4.08372,-2.404184 4.0971913,2.398942 0 0 1 4.110614,2.38842"
       transform="matrix(0.98654524,-0.1634885,0.16628854,0.98607714,-1.625,-0.5)" />
    <path
       style="opacity:0.6;fill:#afc6e9;fill-opacity:1;stroke:#d3956a;stroke-width:0;stroke-miterlimit:4;stroke-dasharray:none;stroke-opacity:0.2071006;filter:url(#filter5212)"
       id="path4958"
       sodipodi:type="arc"
       sodipodi:cx="11.678569"
       sodipodi:cy="38.033016"
       sodipodi:rx="2.4995358"
       sodipodi:ry="1.375203"
       sodipodi:start="0"
       sodipodi:end="6.2788045"
       sodipodi:open="true"
       d="m 14.178105,38.033016 a 2.4995358,1.375203 0 0 1 -2.496799,1.375202 2.4995358,1.375203 0 0 1 -2.502267,-1.37219 2.4995358,1.375203 0 0 1 2.491317,-1.378207 2.4995358,1.375203 0 0 1 2.507725,1.369171"
       transform="matrix(0.99642954,-0.08442846,0.09499983,0.99547729,0,0)" />
  </g>
</svg>
